[B]The Possession (2012)[/B]
 
http://www.shotpix.com/images/46134480441665246796.jpg



[B]INFO[/B]
 
http://www.imdb.com/title/tt0431021/

RIP INFO
[code]Format                                   : Matroska
Format version                           : Version 4 / Version 2
File size                                : 1.12 GiB
Duration                                 : 1h 32mn
Overall bit rate                         : 1 732 Kbps
[/code]

VIDEO
[code]Format                                   : AVC
Format/Info                              : Advanced Video Codec
Format profile                           : High@L3.1
Format settings, CABAC                   : Yes
Format settings, ReFrames                : 4 frames
Codec ID                                 : V_MPEG4/ISO/AVC
Duration                                 : 1h 32mn
Bit rate                                 : 1 026 Kbps
Width                                    : 1 280 pixels
Height                                   : 528 pixels
Display aspect ratio                     : 2.40:1
Frame rate mode                          : Constant
Frame rate                               : 23.976 fps
Color space                              : YUV
Chroma subsampling                       : 4:2:0
Bit depth                                : 8 bits
Scan type                                : Progressive
Bits/(Pixel*Frame)                       : 0.063
Stream size                              : 677 MiB (59%)
Title                                    : K@rtik
Language                                 : English[/code]

AUDIO 1
[code]Codec ID                                 : A_AC3
Duration                                 : 1h 32mn
Bit rate mode                            : Constant
Bit rate                                 : 224 Kbps
Channel(s)                               : 6 channels
Channel positions                        : Front: L C R, Side: L R, LFE
Sampling rate                            : 48.0 KHz
Bit depth                                : 16 bits
Compression mode                         : Lossy
Delay relative to video                  : 12ms
Stream size                              : 148 MiB (13%)
Title                                    : K@rtik
Language                                 : English[/code]

AUDIO 2
[code]Codec ID                                 : A_AC3
Duration                                 : 1h 32mn
Bit rate mode                            : Constant
Bit rate                                 : 448 Kbps
Channel(s)                               : 6 channels
Channel positions                        : Front: L C R, Side: L R, LFE
Sampling rate                            : 48.0 KHz
Bit depth                                : 16 bits
Compression mode                         : Lossy
Delay relative to video                  : 1s 164ms
Stream size                              : 295 MiB (26%)
Title                                    : K@rtik
Language                                 : Hindi
Default                                  : Yes[/code]


[B]SCREEN SHOTS[/B]
 
http://www.shotpix.com/images/00801759291206756241.png
 
http://www.shotpix.com/images/18687520047069460600.png
 
http://www.shotpix.com/images/95061176717734988610.png
 
http://www.shotpix.com/images/09193372416670425107.png
 
http://www.shotpix.com/images/24821006305456715295.png
 
http://www.shotpix.com/images/92033474631661892080.png
 
http://www.shotpix.com/images/76493858240473480148.png
 
http://www.shotpix.com/images/94461647547003854186.png